<svg xmlns="http://www.w3.org/2000/svg" width="248.89" height="61.38" viewBox="0 0 248.89 61.38"><g transform="translate(-600.296 -176.405)"><path d="M632.641,176.69a27.634,27.634,0,0,0-14.231,1.7c2.74,2.8,5.446,5.657,7.9,8.707.645.8,1.393,1.685,1.956,2.417a103.63,103.63,0,0,1,5.917,8.621c.555.911,1.165,1.35,1.7,1.288.81-.1,1.462-1.362,1.476-3.879A43.774,43.774,0,0,0,632.641,176.69Z" fill="#fff"/><path d="M626.818,195.394c-5.137-4.6-12.4-7.921-19.119-9.512a31.319,31.319,0,0,0-7.4,14.711c4.191-.513,8.4-.981,12.574-1.123,1.077-.036,2.3-.091,3.264-.093a97.294,97.294,0,0,1,10.692.609c1.061.125,1.786-.115,2.076-.622C629.345,198.59,628.8,197.171,626.818,195.394Z" fill="#fff"/><path d="M624.469,205.366c-.325-.875-1.773-1.335-4.424-.776-6.939,1.463-14.139,5.622-19.452,10.328a31.139,31.139,0,0,0,7.961,14.334c1.971-3.593,4.048-7.152,6.321-10.507.6-.89,1.281-1.913,1.852-2.7h0a103.045,103.045,0,0,1,6.94-8.514C624.418,206.709,624.683,205.941,624.469,205.366Z" fill="#fff"/><path d="M630.257,227.7c-.269-.9-.586-1.95-.807-2.8a97.007,97.007,0,0,1-2.008-10.17c-.151-1.086-.561-1.763-1.12-1.932-.852-.258-2.09.669-3.249,3.136a42.913,42.913,0,0,0-3.571,20.31,29.815,29.815,0,0,0,14.209,1.119C632.443,234.164,631.224,230.943,630.257,227.7Z" fill="#fff"/><path d="M645.274,220.885c-.742-.293-1.607-.6-2.293-.9a61.348,61.348,0,0,1-8.084-4.1c-.852-.5-1.582-.568-2.041-.221-.7.529-.776,2.06.255,4.316a32.479,32.479,0,0,0,11.211,13.013,29.947,29.947,0,0,0,9-9.605A66.154,66.154,0,0,1,645.274,220.885Z" fill="#fff"/><path d="M656.975,200.145c-2.187,1.8-8.233,6-8.862,6.386h0a61.406,61.406,0,0,1-7.84,4.075c-.875.388-1.372.938-1.415,1.51-.066.872.957,1.83,3.094,2.3a27.559,27.559,0,0,0,15.224-1.33A41.206,41.206,0,0,0,656.975,200.145Z" fill="#fff"/><path d="M643.448,180.662c-.2,3.361-.442,6.731-.9,10.021-.123.892-.263,1.931-.4,2.751a96.269,96.269,0,0,1-2.176,9.485,2.252,2.252,0,0,0,.165,2.14c.571.6,1.874.351,3.567-1.129a34.131,34.131,0,0,0,9.083-13.96A29.784,29.784,0,0,0,643.448,180.662Z" fill="#fff"/><path d="M834.364,186.088l-5.812,41.035h-7.393v-4.587c-3.662,3.5-7.468,5.274-11.324,5.274a7.64,7.64,0,0,1-6.118-2.389c-2.176-2.482-2.814-6.866-1.952-13.4,1.7-12.253,6.275-14.714,13.1-14.714a60.866,60.866,0,0,1,8.539.65l1.68-11.866Zm-15.947,17.974c-5.151,0-6.249.655-7.267,8.177-.522,3.855-.674,6.259.091,7.133a1.979,1.979,0,0,0,1.667.477c2.813-.055,5.049-1.54,7.934-4.092l1.631-11.7Zm-83.53-6.758c-5.248,0-8.839,1.09-11.3,3.43-2.433,2.312-3.871,5.844-4.663,11.452-.792,5.573-.115,9.5,2.068,12.021,2.1,2.425,5.677,3.6,10.92,3.6a32.6,32.6,0,0,0,9.771-1.355l.24-.078.961-6.855-.614.1a64.779,64.779,0,0,1-8.871.509c-2.432,0-3.643-.3-4.318-1.064-.837-.949-.995-2.8-.544-6.379.809-6.64,2.872-7.712,7.5-7.712,1.874,0,8.871.12,8.871.12l.909-6.5a38.215,38.215,0,0,0-10.923-1.293m62.916,3.223c1.409,1.625,1.882,3.9,1.446,6.966-.9,6.176-5.234,7.711-11.931,8.185l-7.961.6c.215,3.347,1.959,3.974,5.244,3.974a100.269,100.269,0,0,0,10.771-.618l.449-.115.052.461a34.19,34.19,0,0,0,1.09,5.129l.106.348-.336.142c-3.622,1.52-9.332,2.212-13.1,2.212-5.349,0-9.027-1.212-11.246-3.707-2.261-2.544-3.038-6.513-2.375-12.136,1.33-10.964,5.561-14.663,16.768-14.663,5.54,0,9.147,1.054,11.028,3.223m-11.811,9.367c2.7-.216,3.958-.745,4.273-3.308a2.289,2.289,0,0,0-.3-1.75c-.422-.46-1.417-.552-2.888-.552q-.408,0-.868.009c-4.344,0-5.417,1.482-6.268,6.179Zm-14.96-11.788h-1.789c-3.4,0-6.722,1.682-11.008,5.6v-5.6H750.9l-4.061,29.017h9.288l2.25-16.69a10.486,10.486,0,0,1,6.842-3.246H767.2l.069-.317a31.62,31.62,0,0,1,3.409-8.157Zm-97.486-1.315c-.777,5.988,1.316,9.529,7,11.839l7.506,2.988c2.384.871,2.909,1.315,2.6,3.675-.464,3.042-1.647,3.855-6.9,3.855H671.008l-1.134,7.969h14.259c11.108,0,14.838-2.619,15.965-11.207.7-5.421-.244-9.311-7.066-11.957l-7.1-2.7c-2.749-1.027-3.257-1.438-2.892-3.844.42-2.683,1.409-3.263,3.468-3.407H701.73l1.134-7.969H689.281c-9.244,0-14.49,1.714-15.735,10.76m29.386,30.332h9.227l4.063-29.017h-9.228ZM716.8,194l1.115-7.969h-9.227L707.569,194Zm117.411,33.123h9.227l4.063-29.017h-9.228ZM848.071,194l1.115-7.969h-9.227L838.844,194Z" fill="#fff"/></g></svg>